<svg width="82" height="54" viewBox="0 0 82 54" fill="none" xmlns="http://www.w3.org/2000/svg">
<path d="M22.1074 8.99219H21.0234L18.3164 5.14258L15.6152 9.00391H14.5371L17.9883 4.16992H18.6562L22.1074 8.99219ZM28.125 14.7402H23.1445V14.043H28.125V14.7402ZM33.1055 14.7402H28.125V14.043H33.1055V14.7402ZM38.0859 14.7402H33.1055V14.043H38.0859V14.7402ZM43.0664 14.7402H38.0859V14.043H43.0664V14.7402ZM48.0469 14.7402H43.0664V14.043H48.0469V14.7402ZM53.0273 14.7402H48.0469V14.043H53.0273V14.7402ZM58.0078 14.7402H53.0273V14.043H58.0078V14.7402ZM66.6152 8.99219H65.5312L62.8242 5.14258L60.123 9.00391H59.0449L62.4961 4.16992H63.1641L66.6152 8.99219Z" fill="black"/>
<path d="M11.2559 31.8496H10.1016C8.74219 30.2168 8.0625 28.3965 8.0625 26.3887C8.0625 24.3965 8.74219 22.5781 10.1016 20.9336H11.2559V20.9922C10.6152 21.5859 10.0938 22.3105 9.69141 23.166C9.21484 24.1816 8.97656 25.2559 8.97656 26.3887C8.97656 27.5293 9.21484 28.6094 9.69141 29.6289C10.0938 30.4844 10.6152 31.209 11.2559 31.8027V31.8496ZM13.3008 22.8262V22.1055H22.5645V22.8262H13.3008ZM14.0215 26.7051V25.9609H21.8789V26.7051H14.0215ZM12.7383 31.1523V30.3789H23.1152V31.1523H12.7383ZM31.5352 26.5059C31.5352 26.9277 31.3867 27.2812 31.0898 27.5664C30.793 27.8516 30.4297 27.9941 30 27.9941C29.5703 27.9941 29.207 27.8516 28.9102 27.5664C28.6133 27.2812 28.4648 26.9277 28.4648 26.5059C28.4648 26.0801 28.6133 25.7148 28.9102 25.4102C29.2109 25.1016 29.5742 24.9473 30 24.9473C30.4219 24.9473 30.7832 25.1016 31.084 25.4102C31.3848 25.7148 31.5352 26.0801 31.5352 26.5059ZM33.8672 26.5059C33.8672 25.459 33.4844 24.5605 32.7188 23.8105C31.957 23.0566 31.0488 22.6797 29.9941 22.6797C28.9434 22.6797 28.0527 23.0547 27.3223 23.8047C26.5918 24.5508 26.2266 25.4512 26.2266 26.5059C26.2266 27.5605 26.5918 28.4609 27.3223 29.207C28.0527 29.9492 28.9434 30.3203 29.9941 30.3203C31.0488 30.3203 31.957 29.9473 32.7188 29.2012C33.4844 28.4512 33.8672 27.5527 33.8672 26.5059ZM34.3535 26.5059C34.3535 27.6816 33.9219 28.6895 33.0586 29.5293C32.1992 30.3691 31.1777 30.7891 29.9941 30.7891C28.8145 30.7891 27.8047 30.3711 26.9648 29.5352C26.1289 28.6953 25.7109 27.6855 25.7109 26.5059C25.7109 25.3262 26.1289 24.3164 26.9648 23.4766C27.8047 22.6367 28.8145 22.2168 29.9941 22.2168C31.1777 22.2168 32.1992 22.6387 33.0586 23.4824C33.9219 24.3223 34.3535 25.3301 34.3535 26.5059ZM40.8574 30.0156H40.834C40.4316 30.7617 39.8359 31.1348 39.0469 31.1348C38.3086 31.1348 37.7324 30.8867 37.3184 30.3906C36.9043 29.8906 36.6973 29.2031 36.6973 28.3281C36.6973 27.3203 36.9434 26.2109 37.4355 25H38.5078C37.9492 26.2461 37.6699 27.3672 37.6699 28.3633C37.6699 28.9844 37.7891 29.4609 38.0273 29.793C38.2656 30.125 38.5977 30.291 39.0234 30.291C39.9219 30.291 40.3711 29.6152 40.3711 28.2637V26.6055H41.332V28.2637C41.332 29.6152 41.7793 30.291 42.6738 30.291C43.0918 30.291 43.4199 30.125 43.6582 29.793C43.9004 29.4609 44.0215 28.9844 44.0215 28.3633C44.0215 27.3672 43.7441 26.2461 43.1895 25H44.2559C44.752 26.2148 45 27.3242 45 28.3281C45 29.207 44.791 29.8945 44.373 30.3906C43.959 30.8867 43.3789 31.1348 42.6328 31.1348C41.8438 31.1348 41.252 30.7617 40.8574 30.0156ZM53.2383 26.5059C53.2383 26.9277 53.0898 27.2812 52.793 27.5664C52.4961 27.8516 52.1328 27.9941 51.7031 27.9941C51.2734 27.9941 50.9102 27.8516 50.6133 27.5664C50.3164 27.2812 50.168 26.9277 50.168 26.5059C50.168 26.0801 50.3164 25.7148 50.6133 25.4102C50.9141 25.1016 51.2773 24.9473 51.7031 24.9473C52.125 24.9473 52.4863 25.1016 52.7871 25.4102C53.0879 25.7148 53.2383 26.0801 53.2383 26.5059ZM55.5703 26.5059C55.5703 25.459 55.1875 24.5605 54.4219 23.8105C53.6602 23.0566 52.752 22.6797 51.6973 22.6797C50.6465 22.6797 49.7559 23.0547 49.0254 23.8047C48.2949 24.5508 47.9297 25.4512 47.9297 26.5059C47.9297 27.5605 48.2949 28.4609 49.0254 29.207C49.7559 29.9492 50.6465 30.3203 51.6973 30.3203C52.752 30.3203 53.6602 29.9473 54.4219 29.2012C55.1875 28.4512 55.5703 27.5527 55.5703 26.5059ZM56.0566 26.5059C56.0566 27.6816 55.625 28.6895 54.7617 29.5293C53.9023 30.3691 52.8809 30.7891 51.6973 30.7891C50.5176 30.7891 49.5078 30.3711 48.668 29.5352C47.832 28.6953 47.4141 27.6855 47.4141 26.5059C47.4141 25.3262 47.832 24.3164 48.668 23.4766C49.5078 22.6367 50.5176 22.2168 51.6973 22.2168C52.8809 22.2168 53.9023 22.6387 54.7617 23.4824C55.625 24.3223 56.0566 25.3301 56.0566 26.5059ZM59.0039 22.8262V22.1055H68.2676V22.8262H59.0039ZM59.7246 26.7051V25.9609H67.582V26.7051H59.7246ZM58.4414 31.1523V30.3789H68.8184V31.1523H58.4414ZM73.5645 26.3828C73.5645 28.3906 72.8848 30.2109 71.5254 31.8438H70.377V31.7969C71.0176 31.2031 71.5391 30.4785 71.9414 29.623C72.418 28.6035 72.6562 27.5234 72.6562 26.3828C72.6562 25.25 72.418 24.1758 71.9414 23.1602C71.5391 22.3047 71.0176 21.5801 70.377 20.9863V20.9219H71.5254C72.8848 22.5664 73.5645 24.3867 73.5645 26.3828Z" fill="black"/>
<path d="M33.127 44.8984C32.6855 46.4609 32.0352 47.6094 31.1758 48.3438C30.3164 49.0781 29.2109 49.4453 27.8594 49.4453C27.332 49.4453 26.8633 49.3926 26.4531 49.2871C26.043 49.1816 25.6914 49.0254 25.3984 48.8184C25.1055 48.6074 24.8711 48.3457 24.6953 48.0332C24.5195 47.7168 24.4062 47.375 24.3555 47.0078C24.3086 46.6406 24.2852 46.0332 24.2852 45.1855C24.2852 43.7441 24.3711 41.9746 24.543 39.877H25.5039C25.2969 41.8887 25.1934 43.6738 25.1934 45.2324C25.1934 45.7754 25.2051 46.2344 25.2285 46.6094C25.2559 46.9805 25.3691 47.3242 25.5684 47.6406C25.7715 47.957 26.0723 48.1973 26.4707 48.3613C26.8691 48.5254 27.3633 48.6074 27.9531 48.6074C29.0117 48.6074 29.8926 48.3105 30.5957 47.7168C31.2988 47.1191 31.8691 46.0781 32.3066 44.5938L33.127 44.8984Z" fill="black"/>
<path d="M59.127 44.8984C58.6855 46.4609 58.0352 47.6094 57.1758 48.3438C56.3164 49.0781 55.2109 49.4453 53.8594 49.4453C53.332 49.4453 52.8633 49.3926 52.4531 49.2871C52.043 49.1816 51.6914 49.0254 51.3984 48.8184C51.1055 48.6074 50.8711 48.3457 50.6953 48.0332C50.5195 47.7168 50.4062 47.375 50.3555 47.0078C50.3086 46.6406 50.2852 46.0332 50.2852 45.1855C50.2852 43.7441 50.3711 41.9746 50.543 39.877H51.5039C51.2969 41.8887 51.1934 43.6738 51.1934 45.2324C51.1934 45.7754 51.2051 46.2344 51.2285 46.6094C51.2559 46.9805 51.3691 47.3242 51.5684 47.6406C51.7715 47.957 52.0723 48.1973 52.4707 48.3613C52.8691 48.5254 53.3633 48.6074 53.9531 48.6074C55.0117 48.6074 55.8926 48.3105 56.5957 47.7168C57.2988 47.1191 57.8691 46.0781 58.3066 44.5938L59.127 44.8984Z" fill="black"/>
</svg>
